<svg width="56" height="56" viewBox="0 0 56 56" fill="none" xmlns="http://www.w3.org/2000/svg">
<path fill-rule="evenodd" clip-rule="evenodd" d="M6.41667 4.66667C4.16151 4.66667 2.33334 6.49484 2.33334 8.75V16.9167C2.33334 19.1718 4.16151 21 6.41667 21H49.5833C51.8385 21 53.6667 19.1718 53.6667 16.9167V8.75C53.6667 6.49484 51.8385 4.66667 49.5833 4.66667H6.41667ZM49.5833 8.16667H6.41667C6.0945 8.16667 5.83334 8.42784 5.83334 8.75V16.9167C5.83334 17.2388 6.0945 17.5 6.41667 17.5H49.5833C49.9055 17.5 50.1667 17.2388 50.1667 16.9167V8.75C50.1667 8.42783 49.9055 8.16667 49.5833 8.16667Z" fill="#BDBDBD"/>
<path d="M6.41667 23.3333C7.38317 23.3333 8.16667 24.1168 8.16667 25.0833V47.25C8.16667 47.5722 8.42784 47.8333 8.75 47.8333H47.25C47.5722 47.8333 47.8333 47.5722 47.8333 47.25V25.0833C47.8333 24.1168 48.6168 23.3333 49.5833 23.3333C50.5498 23.3333 51.3333 24.1168 51.3333 25.0833V47.25C51.3333 49.5052 49.5052 51.3333 47.25 51.3333H8.75C6.49484 51.3333 4.66667 49.5052 4.66667 47.25V25.0833C4.66667 24.1168 5.45017 23.3333 6.41667 23.3333Z" fill="#BDBDBD"/>
<path d="M22.75 26.8333C21.7835 26.8333 21 27.6168 21 28.5833C21 29.5498 21.7835 30.3333 22.75 30.3333H33.25C34.2165 30.3333 35 29.5498 35 28.5833C35 27.6168 34.2165 26.8333 33.25 26.8333H22.75Z" fill="#BDBDBD"/>
</svg>
